<svg width="94" height="94" viewBox="0 0 94 94" fill="none" xmlns="http://www.w3.org/2000/svg">
<path d="M38.7369 29.8445C38.5962 30.0299 38.4463 30.2083 38.2895 30.3765L37.8994 30.7679C37.6522 31.0161 37.4222 31.2644 37.2392 31.4875C37.1476 31.5997 37.0721 31.7061 37.0161 31.7942C36.9623 31.8812 36.9131 31.9487 36.9016 32.0493C36.8879 32.1569 36.944 32.3022 37.0538 32.4475C37.1637 32.5905 37.317 32.729 37.4966 32.8674C37.2838 32.9498 37.0515 32.9773 36.8044 32.9475C36.5584 32.9189 36.2884 32.8091 36.063 32.5745C35.8398 32.34 35.7151 31.9933 35.6957 31.6878C35.6739 31.3789 35.7208 31.0997 35.7906 30.8479C35.9314 30.3468 36.1648 29.9406 36.4142 29.5676C36.5389 29.3845 36.6934 29.1992 36.8032 29.0561C36.9131 28.9269 37.0149 28.7941 37.1076 28.6625C37.4852 28.1374 37.7495 27.6637 37.8479 27.1076C37.9509 26.5447 37.8364 25.825 37.4966 25C38.3788 25.1854 39.1637 25.9234 39.42 26.9554C39.547 27.4646 39.5195 28.0241 39.3834 28.5149C39.2484 29.0161 39.0092 29.4578 38.7369 29.8445Z" fill="#E0966B"/>
<path d="M46.0827 28.2778C45.8712 28.5564 45.6442 28.8246 45.4103 29.0774L44.8256 29.6656C44.4542 30.0388 44.1102 30.4119 43.8282 30.7473C43.6958 30.9158 43.5823 31.0758 43.4963 31.2082C43.412 31.3389 43.3415 31.4403 43.3278 31.5917C43.3054 31.7533 43.3879 31.9717 43.553 32.1901C43.7164 32.4051 43.9486 32.6132 44.222 32.8213C43.8987 32.9451 43.5479 32.9864 43.1781 32.9417C42.8101 32.8987 42.3991 32.7336 42.0638 32.381C41.725 32.0285 41.541 31.5074 41.51 31.0482C41.4773 30.5839 41.5461 30.1643 41.651 29.786C41.866 29.0327 42.2185 28.4222 42.5934 27.8616C42.7775 27.5865 43.0113 27.3079 43.1764 27.0929C43.3381 26.8986 43.4946 26.6991 43.6304 26.5013C44.1997 25.712 44.5986 25 44.7465 24.1642C44.9013 23.3216 44.7328 22.2399 44.2237 20.9999C45.5479 21.2785 46.7259 22.3878 47.1094 23.9389C47.3003 24.7042 47.2608 25.5451 47.0561 26.2829C46.8497 27.0327 46.4972 27.6965 46.0827 28.2778Z" fill="#E0966B"/>
<path d="M56.486 25.5398C56.1535 25.9814 55.7965 26.4066 55.4231 26.8072L54.4937 27.7393C53.905 28.3308 53.3626 28.9222 52.9211 29.4537C52.703 29.7208 52.5231 29.9743 52.3896 30.1841C52.2615 30.3913 52.1497 30.5521 52.117 30.7919C52.0816 31.0481 52.2179 31.3943 52.4795 31.7404C52.7384 32.0811 53.1064 32.4109 53.5398 32.7407C53.0274 32.9369 52.4713 33.0023 51.8908 32.9314C51.3048 32.8633 50.6562 32.6017 50.1192 32.0429C49.5877 31.4842 49.2934 30.6584 49.2471 29.9307C49.1925 29.1948 49.3043 28.5297 49.4706 27.9301C49.8058 26.7363 50.3591 25.7688 50.956 24.8803C51.253 24.4442 51.621 24.0026 51.8826 23.662C52.1443 23.354 52.3896 23.0378 52.6076 22.7244C53.507 21.4734 54.1366 20.345 54.3683 19.0204C54.6163 17.6794 54.3438 15.9651 53.5398 14C55.6384 14.4415 57.5108 16.1995 58.1159 18.6579C58.4157 19.8708 58.353 21.2035 58.0287 22.3728C57.7071 23.5666 57.1429 24.6186 56.486 25.5398Z" fill="#E0966B"/>
<path d="M60 34.9592H51H33V39.9592H38V72.9592C38 83.4592 54.5 83.4592 61 70.9592V66.9592C54 77.4592 51 72.4592 51 69.4592V39.9592H60V34.9592Z" fill="#20503B"/>
</svg>
